<?xml version="1.0" ?><!DOCTYPE svg  PUBLIC '-//W3C//DTD SVG 1.0//EN'  'http://www.w3.org/TR/2001/REC-SVG-20010904/DTD/svg10.dtd'><svg width="100px" height="100px" viewBox="0 0 100 100" style="enable-background:new 0 0 100 100;" version="1.0" xml:space="preserve" xmlns="http://www.w3.org/2000/svg" xmlns:xlink="http://www.w3.org/1999/xlink"><g id="_x31_"/><g id="_x32_"/><g id="_x33_"/><g id="_x34_"/><g id="_x35_"/><g id="_x36_"/><g id="_x37_"/><g id="_x38_"/><g id="_x39_"/><g id="_x31_0"/><g id="_x31_1"/><g id="_x31_2"/><g id="_x31_3"/><g id="_x31_4"/><g id="_x31_5"/><g id="_x31_6"/><g id="_x31_7"/><g id="_x31_8"/><g id="_x31_9"/><g id="_x32_0"/><g id="_x32_1"/><g id="_x32_2"><path d="M50,85.9c-19.8,0-35.9-16.1-35.9-35.9S30.2,14.1,50,14.1c2.7,0,5.5,0.3,8.1,0.9c0.7,0.2,1.3,0.7,1.5,1.5s-0.1,1.5-0.7,2   c-7.4,6.1-11.6,15.1-11.6,24.6c0,14.9,10.2,27.7,24.7,31.1c0.7,0.2,1.3,0.7,1.5,1.5c0.2,0.7-0.1,1.5-0.7,2   C66.4,83,58.3,85.9,50,85.9z M50,18.1c-17.6,0-31.9,14.3-31.9,31.9S32.4,81.9,50,81.9c6.1,0,12-1.7,17.1-5   c-14.2-5-23.8-18.4-23.8-33.8c0-9.4,3.6-18.2,10-24.9C52.2,18.2,51.1,18.1,50,18.1z M63.3,47.1c-0.7,0-1.4-0.4-1.8-1l-2.7-5l-5-2.7   c-0.6-0.4-1-1-1-1.8s0.4-1.4,1-1.8l5-2.7l2.7-5c0.4-0.6,1-1,1.8-1s1.4,0.4,1.8,1l2.7,5l5,2.7c0.6,0.4,1,1,1,1.8s-0.4,1.4-1,1.8   l-5,2.7L65,46C64.7,46.7,64,47.1,63.3,47.1z M58.9,36.5l2.3,1.3c0.3,0.2,0.6,0.5,0.8,0.8l1.3,2.3l1.3-2.3c0.2-0.3,0.5-0.6,0.8-0.8   l2.3-1.3l-2.3-1.3c-0.3-0.2-0.6-0.5-0.8-0.8l-1.3-2.3L62,34.5c-0.2,0.3-0.5,0.6-0.8,0.8L58.9,36.5z M75.8,66.7   c-0.7,0-1.4-0.4-1.8-1l-1.9-3.4l-3.4-1.9c-0.6-0.4-1-1-1-1.8s0.4-1.4,1-1.8l3.4-1.9l1.9-3.4c0.4-0.6,1-1,1.8-1l0,0   c0.7,0,1.4,0.4,1.8,1l1.9,3.4l3.4,1.9c0.6,0.4,1,1,1,1.8s-0.4,1.4-1,1.8l-3.4,1.9l-1.9,3.4C77.2,66.3,76.5,66.7,75.8,66.7z    M73.9,58.5l0.7,0.4c0.3,0.2,0.6,0.5,0.8,0.8l0.4,0.7l0.4-0.7c0.2-0.3,0.5-0.6,0.8-0.8l0.7-0.4L77,58.1c-0.3-0.2-0.6-0.5-0.8-0.8   l-0.4-0.7l-0.4,0.7c-0.2,0.3-0.5,0.6-0.8,0.8L73.9,58.5z M27.2,47.6c0.4-0.4,0.6-0.9,0.6-1.4c0-0.5-0.2-1-0.6-1.4   c-0.7-0.8-2.1-0.8-2.8,0c-0.4,0.4-0.6,0.9-0.6,1.4c0,0.5,0.2,1.1,0.6,1.4c0.4,0.4,0.9,0.6,1.4,0.6C26.3,48.2,26.8,48,27.2,47.6z    M39.2,28.6c0.4-0.4,0.6-0.9,0.6-1.4c0-0.5-0.2-1-0.6-1.4c-0.7-0.8-2.1-0.7-2.8,0c-0.4,0.4-0.6,0.9-0.6,1.4c0,0.5,0.2,1.1,0.6,1.4   c0.4,0.4,0.9,0.6,1.4,0.6C38.3,29.2,38.8,29,39.2,28.6z M39.2,68.6c0.4-0.4,0.6-0.9,0.6-1.4c0-0.5-0.2-1-0.6-1.4   c-0.7-0.8-2.1-0.7-2.8,0c-0.4,0.4-0.6,0.9-0.6,1.4c0,0.5,0.2,1,0.6,1.4c0.4,0.4,0.9,0.6,1.4,0.6C38.3,69.2,38.8,69,39.2,68.6z"/></g><g id="_x32_3"/></svg>