<?xml version="1.0" ?><!DOCTYPE svg  PUBLIC '-//W3C//DTD SVG 1.0//EN'  'http://www.w3.org/TR/2001/REC-SVG-20010904/DTD/svg10.dtd'><svg width="100px" height="100px" viewBox="0 0 100 100" style="enable-background:new 0 0 100 100;" version="1.0" xml:space="preserve" xmlns="http://www.w3.org/2000/svg" xmlns:xlink="http://www.w3.org/1999/xlink"><g id="_x31_"/><g id="_x32_"/><g id="_x33_"/><g id="_x34_"/><g id="_x35_"/><g id="_x36_"/><g id="_x37_"/><g id="_x38_"/><g id="_x39_"/><g id="_x31_0"/><g id="_x31_1"/><g id="_x31_2"/><g id="_x31_3"><path d="M65.6,90h-37c-5.8,0-10.4-4.7-10.4-10.4v-4.3c0-1.1,0.9-2,2-2h53.9c1.1,0,2,0.9,2,2v4.3C76.1,85.4,71.4,90,65.6,90z    M22.1,77.3v2.3c0,3.6,2.9,6.4,6.4,6.4h37c3.6,0,6.4-2.9,6.4-6.4v-2.3H22.1z M54.9,33.7H39.3c-0.9,0-1.7-0.6-1.9-1.4   c-0.5-1.6-0.7-3.2-0.7-4.9c0-4,2-6.3,4-8.5c1.7-1.9,3.5-3.9,4.5-7.5c1-3.5,2.9-3.8,4-3.6c4.8,0.7,8.3,15.3,8.3,19.6   c0,1.7-0.2,3.3-0.7,4.9C56.6,33.1,55.8,33.7,54.9,33.7z M40.9,29.7h12.4c0.1-0.7,0.2-1.5,0.2-2.3c0-4.2-2.7-12.4-4.5-15   c0,0,0,0.1,0,0.1c-1.3,4.5-3.6,7-5.4,9.1c-1.8,2-3,3.3-3,5.8C40.7,28.2,40.8,28.9,40.9,29.7z M74.1,76.9c-4.3,0-7.8-3.5-7.8-7.8   s3.5-7.8,7.8-7.8s7.8,3.5,7.8,7.8S78.4,76.9,74.1,76.9z M74.1,65.3c-2.1,0-3.8,1.7-3.8,3.8s1.7,3.8,3.8,3.8s3.8-1.7,3.8-3.8   S76.2,65.3,74.1,65.3z M36.2,60.7c-0.1,0-0.3,0-0.4,0c-3.7-0.2-6.5-3.2-6.5-6.9V36.6c0-3.5,2.7-6.5,6.2-6.8c0.2,0,0.3-0.1,0.5-0.1   h22.2c3.2,0,5.8,2.7,5.8,5.9v13.6c0,3.2-2.6,5.9-5.9,5.9c-2.7,0-5-1.8-5.7-4.4c-0.1-0.2-0.1-0.4-0.1-0.6v-2.6   c0-2.6-2.1-4.6-4.6-4.6c-2.6,0-4.6,2.1-4.6,4.6v6.4C43.1,57.6,40,60.7,36.2,60.7z M36.3,33.7c-0.1,0-0.2,0-0.2,0   c-1.5,0.1-2.8,1.3-2.8,2.9v17.2c0,1.6,1.2,2.8,2.8,2.9c0,0,0.1,0,0.1,0c1.6,0,2.9-1.3,2.9-2.9v-6.4c0-4.8,3.9-8.6,8.6-8.6   s8.6,3.9,8.6,8.6v2.3c0.2,0.8,1,1.3,1.8,1.3c1,0,1.9-0.8,1.9-1.9V35.6c0-1-0.8-1.9-1.9-1.9H36.3z M58.2,77.3H36c-1.1,0-2-0.9-2-2   V58.7c0-0.6,0.2-1.1,0.7-1.5c0.4-0.4,1-0.6,1.6-0.5c1.6,0,2.9-1.3,2.9-2.9v-6.4c0-4.8,3.9-8.6,8.6-8.6c4.8,0,8.6,3.9,8.6,8.6v2.3   c0.2,0.8,1,1.3,1.8,1.3c0,0,0,0,0,0c0.5,0,1,0.2,1.4,0.6c0.4,0.4,0.6,0.9,0.6,1.4l0,22.3c0,0.5-0.2,1-0.6,1.4S58.8,77.3,58.2,77.3z    M38,73.3h18.2l0-18.7c-1.8-0.6-3.2-2.1-3.7-4c-0.1-0.2-0.1-0.4-0.1-0.7v-2.6c0-2.6-2.1-4.6-4.6-4.6c-2.6,0-4.6,2.1-4.6,4.6v6.4   c0,3.2-2.2,5.9-5.1,6.7V73.3z"/></g><g id="_x31_4"/><g id="_x31_5"/><g id="_x31_6"/><g id="_x31_7"/><g id="_x31_8"/><g id="_x31_9"/><g id="_x32_0"/><g id="_x32_1"/><g id="_x32_2"/><g id="_x32_3"/></svg>